<svg width="18" height="11" viewBox="0 0 18 11" fill="none" xmlns="http://www.w3.org/2000/svg">
<path d="M17.7898 5.07612L12.2618 0.151987C12.0082 -0.0739804 11.6249 -0.0443127 11.4065 0.216549C11.1874 0.477992 11.2153 0.872631 11.4689 1.09862L15.7063 4.87252H0.606419C0.271619 4.87252 0 5.15229 0 5.49777C0 5.84326 0.271619 6.12303 0.606419 6.12303H15.8586L13.4434 8.3457L11.5567 9.88412C11.2944 10.0985 11.2492 10.4916 11.4571 10.7627C11.5767 10.9186 11.7544 11 11.9335 11C12.0652 11 12.1981 10.9561 12.3095 10.8651L14.2233 9.30252L17.7969 6.01545C17.9272 5.89592 18.0011 5.72405 18 5.54404C17.9983 5.36402 17.9224 5.1936 17.7899 5.07611L17.7898 5.07612Z" fill="white"/>
</svg>
