<svg width="27" height="17" viewBox="0 0 27 17" fill="none" xmlns="http://www.w3.org/2000/svg">
<path d="M26.6847 7.84492L18.3926 0.23489C18.0123 -0.114333 17.4373 -0.0684832 17.1098 0.334666C16.7811 0.738714 16.823 1.34861 17.2033 1.69787L23.5594 7.53026H0.909628C0.407428 7.53026 0 7.96262 0 8.49656C0 9.0305 0.407428 9.46286 0.909628 9.46286H23.7879L20.1651 12.8979L17.335 15.2755C16.9416 15.6067 16.8739 16.2144 17.1857 16.6333C17.3651 16.8742 17.6316 17 17.9003 17C18.0979 17 18.2971 16.9321 18.4642 16.7915L21.3349 14.3766L26.6954 9.2966C26.8908 9.11188 27.0017 8.84626 27 8.56806C26.9974 8.28985 26.8836 8.02648 26.6848 7.8449L26.6847 7.84492Z" fill="#E90D0D"/>
</svg>
